<svg xmlns="http://www.w3.org/2000/svg" viewBox="0 0 200 462" aria-hidden="true">
<!-- Nokia 3310 for the header menu (assets/js/nokia.js). Keys with data-key are pressed by the script. -->
<style>
  .n-hole { fill: #04060d; opacity: .72; }
  .n-light { fill: url(#n-glow-fill); opacity: 0; transition: opacity .5s; }
  .n-backlight { opacity: 0; transition: opacity .5s; }
  .is-lit .n-light { opacity: .9; }
  .is-lit .n-backlight { opacity: .75; }
  .n-drop { fill: #000; opacity: .55; filter: url(#n-blur); transition: opacity .08s; }
  .n-cap { transition: transform .08s; }
  .n-cap-face { fill: url(#n-key); stroke: #5f6670; stroke-width: .5; }
  .n-cap-shine { fill: #fff; opacity: .65; filter: url(#n-blur); }
  .n-digit, .n-letters { fill: #15241b; text-anchor: middle; dominant-baseline: central;
    font-family: "Helvetica Neue", Helvetica, Arial, sans-serif; }
  .n-digit { font-size: 11.5px; font-weight: 700; }
  .n-letters { font-size: 6.6px; font-weight: 600; }
  .n-ink-line, .n-ink-bold { fill: none; stroke: #15241b; stroke-linecap: round; stroke-linejoin: round; }
  .n-ink-line { stroke-width: .8; }
  .n-ink-bold { stroke-width: 1.7; }
  .n-hit { fill: transparent; }
  .n-key { cursor: pointer; }
  .n-key.is-pressed .n-cap { transform: translate(0, .7px); }
  .n-key.is-pressed .n-drop { opacity: .2; }
</style>
<defs>
  <linearGradient id="n-body" x1="0" x2="1">
    <stop offset="0" stop-color="#090d20"/><stop offset=".05" stop-color="#18203f"/>
    <stop offset=".5" stop-color="#222d50"/><stop offset=".95" stop-color="#151c38"/>
    <stop offset="1" stop-color="#070a1a"/>
  </linearGradient>
  <linearGradient id="n-cover" x1="0" y1="0" x2="0" y2="1">
    <stop offset="0" stop-color="#34436d"/><stop offset=".45" stop-color="#2c3a62"/>
    <stop offset="1" stop-color="#232e52"/>
  </linearGradient>
  <linearGradient id="n-cover-sides" x1="0" x2="1">
    <stop offset="0" stop-color="#d8e0ff" stop-opacity=".2"/><stop offset=".09" stop-color="#d8e0ff" stop-opacity="0"/>
    <stop offset=".84" stop-color="#000" stop-opacity="0"/><stop offset="1" stop-color="#000" stop-opacity=".42"/>
  </linearGradient>
  <linearGradient id="n-cover-ends" x1="0" y1="0" x2="0" y2="1">
    <stop offset="0" stop-color="#c8d4ff" stop-opacity=".16"/><stop offset=".06" stop-color="#c8d4ff" stop-opacity="0"/>
    <stop offset=".88" stop-color="#000" stop-opacity="0"/><stop offset="1" stop-color="#000" stop-opacity=".35"/>
  </linearGradient>
  <radialGradient id="n-cover-shine" cx=".32" cy=".62" r=".5">
    <stop offset="0" stop-color="#aebdff" stop-opacity=".12"/><stop offset="1" stop-color="#aebdff" stop-opacity="0"/>
  </radialGradient>
  <linearGradient id="n-silver" x1="0" y1="0" x2="0" y2="1">
    <stop offset="0" stop-color="#f1f3f5"/><stop offset=".25" stop-color="#cfd3d9"/>
    <stop offset=".62" stop-color="#b4bac2"/><stop offset=".82" stop-color="#c9cdd3"/>
    <stop offset="1" stop-color="#dfe2e6"/>
  </linearGradient>
  <linearGradient id="n-silver-sides" x1="0" x2="1">
    <stop offset="0" stop-color="#000" stop-opacity=".28"/><stop offset=".08" stop-color="#000" stop-opacity="0"/>
    <stop offset=".3" stop-color="#fff" stop-opacity=".18"/><stop offset=".5" stop-color="#fff" stop-opacity="0"/>
    <stop offset=".92" stop-color="#000" stop-opacity="0"/><stop offset="1" stop-color="#000" stop-opacity=".32"/>
  </linearGradient>
  <radialGradient id="n-key" cx=".42" cy=".28" r=".85">
    <stop offset="0" stop-color="#fbfcfc"/><stop offset=".38" stop-color="#dde0e4"/>
    <stop offset=".78" stop-color="#b2b8c0"/><stop offset="1" stop-color="#868c96"/>
  </radialGradient>
  <linearGradient id="n-navi" x1="0" y1="0" x2="0" y2="1">
    <stop offset="0" stop-color="#f7f8f9"/><stop offset=".45" stop-color="#d9dde1"/>
    <stop offset="1" stop-color="#9aa0a9"/>
  </linearGradient>
  <linearGradient id="n-soft-key" x1="0" y1="0" x2=".6" y2="1">
    <stop offset="0" stop-color="#f3f4f6"/><stop offset=".5" stop-color="#d0d4d9"/>
    <stop offset="1" stop-color="#9da3ac"/>
  </linearGradient>
  <linearGradient id="n-badge" x1="0" y1="0" x2="0" y2="1">
    <stop offset="0" stop-color="#2a2d33"/><stop offset=".5" stop-color="#0d0f12"/><stop offset="1" stop-color="#050607"/>
  </linearGradient>
  <radialGradient id="n-glow-fill">
    <stop offset=".7" stop-color="#c4ff9a"/><stop offset=".8" stop-color="#9dff70" stop-opacity=".7"/><stop offset="1" stop-color="#7dff5a" stop-opacity="0"/>
  </radialGradient>
  <filter id="n-blur" x="-30%" y="-60%" width="160%" height="220%"><feGaussianBlur stdDeviation="1.1"/></filter>
  <filter id="n-blur-big" x="-30%" y="-60%" width="160%" height="220%"><feGaussianBlur stdDeviation="2.2"/></filter>
  <filter id="n-grain" x="0" y="0" width="100%" height="100%">
    <feTurbulence type="fractalNoise" baseFrequency="1.1" numOctaves="2" seed="7" stitchTiles="stitch"/>
    <feColorMatrix type="saturate" values="0"/>
  </filter>
  <clipPath id="n-cover-clip"><path d="M100,4.5 C127,4.5 158,5.5 173.5,10.5 C186,15 193.5,30 195,59 C196,100 196,180 195,250 C194,330 190.5,398 186.8,429 C184,448 174,456.3 154,456.3 L46,456.3 C26,456.3 16,448 13.2,429 C9.5,398 6,330 5,250 C4,180 4,100 5,59 C6.5,30 14,15 26.5,10.5 C42,5.5 73,4.5 100,4.5 Z"/></clipPath>
  <clipPath id="n-ring-clip"><path d="M100,6.5 C126,6.5 156,7.5 171,12 C183,16 190,29 191.5,57 C192.5,100 192.5,170 192,213 C191.6,238 183,259 171.5,268.5 L130.5,297.5 C124,301.5 112,302.5 100,302.5 C86,302.5 66,299 55,287.5 L29.6,259.5 C21,250 8.6,236 8,213 C7.5,170 7.5,100 8.5,57 C10,29 17,16 29,12 C44,7.5 74,6.5 100,6.5 Z M100,12 C124,12 150,13 163,16.5 C173,19.5 178.2,30 179.6,55 C180.5,100 180.5,170 180,204 C179.5,228 171,241 152,246.5 C136,250.5 118,251 100,251 C82,251 64,250.5 48,246.5 C29,241 20.5,228 20,204 C19.5,170 19.5,100 20.4,55 C21.8,30 27,19.5 37,16.5 C50,13 76,12 100,12 Z" clip-rule="evenodd"/></clipPath>
</defs>

<!-- The housing: the dark back seen at the edges, the blue front cover over it. -->
<path d="M100,2 C128,2 160,3 176,8 C190,13 197,29 198.5,59 C199.5,100 199.5,180 198.5,250 C197.5,330 194,400 190,432 C187,452 176,459.5 155,459.5 L45,459.5 C24,459.5 13,452 10,432 C6,400 2.5,330 1.5,250 C0.5,180 0.5,100 1.5,59 C3,29 10,13 24,8 C40,3 72,2 100,2 Z" fill="url(#n-body)"/>
<path d="M100,2 C128,2 160,3 176,8 C190,13 197,29 198.5,59 C199.5,100 199.5,180 198.5,250 C197.5,330 194,400 190,432 C187,452 176,459.5 155,459.5 L45,459.5 C24,459.5 13,452 10,432 C6,400 2.5,330 1.5,250 C0.5,180 0.5,100 1.5,59 C3,29 10,13 24,8 C40,3 72,2 100,2 Z" fill="none" stroke="#fff" stroke-opacity=".08" stroke-width=".8"/>
<path d="M100,4.5 C127,4.5 158,5.5 173.5,10.5 C186,15 193.5,30 195,59 C196,100 196,180 195,250 C194,330 190.5,398 186.8,429 C184,448 174,456.3 154,456.3 L46,456.3 C26,456.3 16,448 13.2,429 C9.5,398 6,330 5,250 C4,180 4,100 5,59 C6.5,30 14,15 26.5,10.5 C42,5.5 73,4.5 100,4.5 Z" fill="url(#n-cover)"/>
<g clip-path="url(#n-cover-clip)">
  <rect width="200" height="462" filter="url(#n-grain)" opacity=".22" style="mix-blend-mode:overlay"/>
  <rect width="200" height="462" fill="url(#n-cover-sides)"/>
  <rect width="200" height="462" fill="url(#n-cover-ends)"/>
  <rect width="200" height="462" fill="url(#n-cover-shine)"/>
</g>
<path d="M100,4.5 C127,4.5 158,5.5 173.5,10.5 C186,15 193.5,30 195,59 C196,100 196,180 195,250 C194,330 190.5,398 186.8,429 C184,448 174,456.3 154,456.3 L46,456.3 C26,456.3 16,448 13.2,429 C9.5,398 6,330 5,250 C4,180 4,100 5,59 C6.5,30 14,15 26.5,10.5 C42,5.5 73,4.5 100,4.5 Z" fill="none" stroke="#05081a" stroke-opacity=".7" stroke-width=".8"/>
<path d="M100,4.5 C127,4.5 158,5.5 173.5,10.5 C186,15 193.5,30 195,59 C196,100 196,180 195,250 C194,330 190.5,398 186.8,429 C184,448 174,456.3 154,456.3 L46,456.3 C26,456.3 16,448 13.2,429 C9.5,398 6,330 5,250 C4,180 4,100 5,59 C6.5,30 14,15 26.5,10.5 C42,5.5 73,4.5 100,4.5 Z" fill="none" stroke="#c8d2ff" stroke-opacity=".14" stroke-width=".6" transform="translate(.5 .7)" clip-path="url(#n-cover-clip)"/>

<!-- The light grey ring round the top half, with a bevel. -->
<path d="M100,6.5 C126,6.5 156,7.5 171,12 C183,16 190,29 191.5,57 C192.5,100 192.5,170 192,213 C191.6,238 183,259 171.5,268.5 L130.5,297.5 C124,301.5 112,302.5 100,302.5 C86,302.5 66,299 55,287.5 L29.6,259.5 C21,250 8.6,236 8,213 C7.5,170 7.5,100 8.5,57 C10,29 17,16 29,12 C44,7.5 74,6.5 100,6.5 Z M100,12 C124,12 150,13 163,16.5 C173,19.5 178.2,30 179.6,55 C180.5,100 180.5,170 180,204 C179.5,228 171,241 152,246.5 C136,250.5 118,251 100,251 C82,251 64,250.5 48,246.5 C29,241 20.5,228 20,204 C19.5,170 19.5,100 20.4,55 C21.8,30 27,19.5 37,16.5 C50,13 76,12 100,12 Z" fill-rule="evenodd" fill="#05081a" opacity=".55" transform="translate(0 1.1)" filter="url(#n-blur)"/>
<path d="M100,6.5 C126,6.5 156,7.5 171,12 C183,16 190,29 191.5,57 C192.5,100 192.5,170 192,213 C191.6,238 183,259 171.5,268.5 L130.5,297.5 C124,301.5 112,302.5 100,302.5 C86,302.5 66,299 55,287.5 L29.6,259.5 C21,250 8.6,236 8,213 C7.5,170 7.5,100 8.5,57 C10,29 17,16 29,12 C44,7.5 74,6.5 100,6.5 Z M100,12 C124,12 150,13 163,16.5 C173,19.5 178.2,30 179.6,55 C180.5,100 180.5,170 180,204 C179.5,228 171,241 152,246.5 C136,250.5 118,251 100,251 C82,251 64,250.5 48,246.5 C29,241 20.5,228 20,204 C19.5,170 19.5,100 20.4,55 C21.8,30 27,19.5 37,16.5 C50,13 76,12 100,12 Z" fill-rule="evenodd" fill="url(#n-silver)"/>
<g clip-path="url(#n-ring-clip)">
  <rect width="200" height="310" fill="url(#n-silver-sides)"/>
  <path d="M100,6.5 C126,6.5 156,7.5 171,12 C183,16 190,29 191.5,57 C192.5,100 192.5,170 192,213 C191.6,238 183,259 171.5,268.5 L130.5,297.5 C124,301.5 112,302.5 100,302.5 C86,302.5 66,299 55,287.5 L29.6,259.5 C21,250 8.6,236 8,213 C7.5,170 7.5,100 8.5,57 C10,29 17,16 29,12 C44,7.5 74,6.5 100,6.5 Z" fill="none" stroke="#fff" stroke-opacity=".75" stroke-width="1.4" transform="translate(.4 .9)"/>
  <path d="M100,12 C124,12 150,13 163,16.5 C173,19.5 178.2,30 179.6,55 C180.5,100 180.5,170 180,204 C179.5,228 171,241 152,246.5 C136,250.5 118,251 100,251 C82,251 64,250.5 48,246.5 C29,241 20.5,228 20,204 C19.5,170 19.5,100 20.4,55 C21.8,30 27,19.5 37,16.5 C50,13 76,12 100,12 Z" fill="none" stroke="#fff" stroke-opacity=".55" stroke-width="1.2" transform="translate(-.3 -.8)"/>
  <path d="M100,12 C124,12 150,13 163,16.5 C173,19.5 178.2,30 179.6,55 C180.5,100 180.5,170 180,204 C179.5,228 171,241 152,246.5 C136,250.5 118,251 100,251 C82,251 64,250.5 48,246.5 C29,241 20.5,228 20,204 C19.5,170 19.5,100 20.4,55 C21.8,30 27,19.5 37,16.5 C50,13 76,12 100,12 Z" fill="none" stroke="#3a4150" stroke-opacity=".5" stroke-width="1.6" transform="translate(.3 1)"/>
</g>
<path d="M100,6.5 C126,6.5 156,7.5 171,12 C183,16 190,29 191.5,57 C192.5,100 192.5,170 192,213 C191.6,238 183,259 171.5,268.5 L130.5,297.5 C124,301.5 112,302.5 100,302.5 C86,302.5 66,299 55,287.5 L29.6,259.5 C21,250 8.6,236 8,213 C7.5,170 7.5,100 8.5,57 C10,29 17,16 29,12 C44,7.5 74,6.5 100,6.5 Z M100,12 C124,12 150,13 163,16.5 C173,19.5 178.2,30 179.6,55 C180.5,100 180.5,170 180,204 C179.5,228 171,241 152,246.5 C136,250.5 118,251 100,251 C82,251 64,250.5 48,246.5 C29,241 20.5,228 20,204 C19.5,170 19.5,100 20.4,55 C21.8,30 27,19.5 37,16.5 C50,13 76,12 100,12 Z" fill-rule="evenodd" fill="none" stroke="#0a0e1e" stroke-opacity=".7" stroke-width=".6"/>

<!-- The earpiece: five holes in a groove. -->
<path d="M100,13 C104.5,22 104.6,62 100,75 C95.4,62 95.5,22 100,13 Z" fill="#141b33" opacity=".75"/>
<path d="M100,13 C104.5,22 104.6,62 100,75" fill="none" stroke="#9aa8d8" stroke-opacity=".25" stroke-width=".6"/>
<ellipse cx="100" cy="19" rx="3.1" ry="1.65" fill="#04060c"/><path d="M97.2,20.0 q2.8,1.4 5.6,0" fill="none" stroke="#a9b6e6" stroke-opacity=".35" stroke-width=".5"/><ellipse cx="100" cy="30.5" rx="3.1" ry="1.65" fill="#04060c"/><path d="M97.2,31.5 q2.8,1.4 5.6,0" fill="none" stroke="#a9b6e6" stroke-opacity=".35" stroke-width=".5"/><ellipse cx="100" cy="42" rx="3.1" ry="1.65" fill="#04060c"/><path d="M97.2,43.0 q2.8,1.4 5.6,0" fill="none" stroke="#a9b6e6" stroke-opacity=".35" stroke-width=".5"/><ellipse cx="100" cy="53.5" rx="3.1" ry="1.65" fill="#04060c"/><path d="M97.2,54.5 q2.8,1.4 5.6,0" fill="none" stroke="#a9b6e6" stroke-opacity=".35" stroke-width=".5"/><ellipse cx="100" cy="65" rx="3.1" ry="1.65" fill="#04060c"/><path d="M97.2,66.0 q2.8,1.4 5.6,0" fill="none" stroke="#a9b6e6" stroke-opacity=".35" stroke-width=".5"/>

<!-- The logo. -->
<rect x="67.5" y="85.5" width="65" height="14" rx="1.4" fill="url(#n-badge)" stroke="#000" stroke-width=".5"/>
<rect x="68.3" y="86.2" width="63.4" height="5" rx="1" fill="#fff" opacity=".06"/>
<text x="100" y="96.6" text-anchor="middle" textLength="53" lengthAdjust="spacingAndGlyphs"
  font-family="'Arial Black', 'Helvetica Neue', Arial, sans-serif" font-weight="900" font-size="10.4"
  fill="#eef0f2">NOKIA</text>

<!-- The display window: the screen itself is HTML on top of it. -->
<rect x="25.9" y="119.4" width="147.2" height="101.2" rx="11" fill="#03050c"/>
<rect x="25.9" y="119.4" width="147.2" height="101.2" rx="11" fill="none" stroke="#8d9bd0" stroke-opacity=".18" stroke-width=".6" transform="translate(0 .6)"/>

<!-- Backlight leaking round the keys, lit by the script. -->
<g class="n-backlight" filter="url(#n-blur-big)">
  <path d="M58.5,250.5 C60,245 80,239.5 100,239.5 C120,239.5 140,245 141.5,250.5 C142.5,254.5 123,262.5 100,262.5 C77,262.5 57.5,254.5 58.5,250.5 Z" fill="url(#n-glow-fill)" transform="translate(100 251) scale(1.12 1.35) translate(-100 -251)"/>
  <path d="M29.4,256.3 Q29.4,253.4 34.4,252.7 L44.6,251.3 Q49.6,250.6 52.8,254.4 L64.5,268.5 Q67.7,272.3 64.5,276.1 L58.4,283.2 Q55.2,287.0 51.8,283.3 L32.8,262.9 Q29.4,259.2 29.4,256.3 Z" fill="#a8ff80" opacity=".8"/>
  <path d="M132.9,255.2 Q136.8,250.6 142.8,251.2 L161.6,252.9 Q167.6,253.5 168.9,259.4 L169.7,262.9 Q171.0,268.8 166.1,272.3 L135.1,294.1 Q130.2,297.6 125.7,293.6 L115.7,284.8 Q111.2,280.8 115.1,276.2 Z" fill="#a8ff80" opacity=".8"/>
</g>

<!-- Navi key, C key and the scroll rocker. -->
<g class="n-key" data-key="select">
  <path d="M58.5,250.5 C60,245 80,239.5 100,239.5 C120,239.5 140,245 141.5,250.5 C142.5,254.5 123,262.5 100,262.5 C77,262.5 57.5,254.5 58.5,250.5 Z" fill="#04060d" opacity=".75" transform="translate(100 251) scale(1.06 1.16) translate(-100 -251)"/>
  <path class="n-drop" d="M58.5,250.5 C60,245 80,239.5 100,239.5 C120,239.5 140,245 141.5,250.5 C142.5,254.5 123,262.5 100,262.5 C77,262.5 57.5,254.5 58.5,250.5 Z" transform="translate(.4 1.6)"/>
  <g class="n-cap">
    <path d="M58.5,250.5 C60,245 80,239.5 100,239.5 C120,239.5 140,245 141.5,250.5 C142.5,254.5 123,262.5 100,262.5 C77,262.5 57.5,254.5 58.5,250.5 Z" fill="url(#n-navi)" stroke="#5f6670" stroke-width=".5"/>
    <path d="M66,248.5 C72,244.5 86,241.6 100,241.6 C114,241.6 128,244.5 134,248.5" fill="none" stroke="#fff" stroke-opacity=".9" stroke-width="1.2" stroke-linecap="round" filter="url(#n-blur)"/>
    <path d="M83,251.2 Q100,248.6 117,251.2" fill="none" stroke="#1f6fc0" stroke-width="2.6" stroke-linecap="round"/>
    <path d="M83,251.2 Q100,248.6 117,251.2" fill="none" stroke="#5db8ff" stroke-width="1.5" stroke-linecap="round"/>
    <path d="M86,250.4 Q100,248.2 114,250.4" fill="none" stroke="#c9ecff" stroke-width=".5" stroke-linecap="round" opacity=".8"/>
  </g>
</g>
<g class="n-key" data-key="back">
  <path d="M29.4,256.3 Q29.4,253.4 34.4,252.7 L44.6,251.3 Q49.6,250.6 52.8,254.4 L64.5,268.5 Q67.7,272.3 64.5,276.1 L58.4,283.2 Q55.2,287.0 51.8,283.3 L32.8,262.9 Q29.4,259.2 29.4,256.3 Z" fill="#04060d" opacity=".7" transform="translate(48 269) scale(1.09) translate(-48 -269)"/>
  <path class="n-drop" d="M29.4,256.3 Q29.4,253.4 34.4,252.7 L44.6,251.3 Q49.6,250.6 52.8,254.4 L64.5,268.5 Q67.7,272.3 64.5,276.1 L58.4,283.2 Q55.2,287.0 51.8,283.3 L32.8,262.9 Q29.4,259.2 29.4,256.3 Z" transform="translate(.4 1.6)"/>
  <g class="n-cap">
    <path d="M29.4,256.3 Q29.4,253.4 34.4,252.7 L44.6,251.3 Q49.6,250.6 52.8,254.4 L64.5,268.5 Q67.7,272.3 64.5,276.1 L58.4,283.2 Q55.2,287.0 51.8,283.3 L32.8,262.9 Q29.4,259.2 29.4,256.3 Z" fill="url(#n-soft-key)" stroke="#5f6670" stroke-width=".5"/>
    <path d="M33,255.6 L49,253.5" stroke="#fff" stroke-opacity=".9" stroke-width="1.3" stroke-linecap="round" filter="url(#n-blur)"/>
    <path class="n-ink-bold" d="M47.3,264.2 C44.2,263 41.4,265.2 41.6,268.2 C41.8,271.2 44.6,272.8 47.4,271.6"/>
  </g>
</g>
<g class="n-key" data-key="rocker">
  <path d="M132.9,255.2 Q136.8,250.6 142.8,251.2 L161.6,252.9 Q167.6,253.5 168.9,259.4 L169.7,262.9 Q171.0,268.8 166.1,272.3 L135.1,294.1 Q130.2,297.6 125.7,293.6 L115.7,284.8 Q111.2,280.8 115.1,276.2 Z" fill="#04060d" opacity=".7" transform="translate(142 274) scale(1.07) translate(-142 -274)"/>
  <path class="n-drop" d="M132.9,255.2 Q136.8,250.6 142.8,251.2 L161.6,252.9 Q167.6,253.5 168.9,259.4 L169.7,262.9 Q171.0,268.8 166.1,272.3 L135.1,294.1 Q130.2,297.6 125.7,293.6 L115.7,284.8 Q111.2,280.8 115.1,276.2 Z" transform="translate(.4 1.6)"/>
  <g class="n-cap">
    <path d="M132.9,255.2 Q136.8,250.6 142.8,251.2 L161.6,252.9 Q167.6,253.5 168.9,259.4 L169.7,262.9 Q171.0,268.8 166.1,272.3 L135.1,294.1 Q130.2,297.6 125.7,293.6 L115.7,284.8 Q111.2,280.8 115.1,276.2 Z" fill="url(#n-soft-key)" stroke="#5f6670" stroke-width=".5"/>
    <path d="M141,253.2 L163,255.2" stroke="#fff" stroke-opacity=".9" stroke-width="1.3" stroke-linecap="round" filter="url(#n-blur)"/>
    <path class="n-ink-bold" d="M152.5,257.6 L159.6,258.4 L159.2,264.8"/>
    <path class="n-ink-bold" d="M123.6,274.2 L124.2,281 L131,281.4"/>
  </g>
  <path class="n-hit" data-key="up" d="M136.8,250.6 L167.6,253.5 L171,268.8 L150,284 L124,262 Z"/>
  <path class="n-hit" data-key="down" d="M124,262 L150,284 L130.2,297.6 L111.2,280.8 Z"/>
</g>

<!-- The keypad. -->
<g class="n-key" data-key="1" transform="translate(40.5 309)">
<ellipse class="n-hole" rx="22.6" ry="12.6" transform="rotate(14)"/>
<ellipse class="n-light" rx="26" ry="15.5" transform="rotate(14)"/>
<ellipse class="n-drop" cx=".5" cy="1.8" rx="20.6" ry="10.8" transform="rotate(14)"/>
<g class="n-cap">
<ellipse class="n-cap-face" rx="20.6" ry="10.8" transform="rotate(14)"/>
<ellipse class="n-cap-shine" cx="-2" cy="-5.6" rx="12" ry="3" transform="rotate(14) "/>
<text class="n-digit" x="-8.4" y="-3.5">1</text>
<path class="n-ink-line" d="M2.0,5.6 h6.4"/><circle class="n-ink-line" cx="2.0" cy="4.0" r="1.6"/><circle class="n-ink-line" cx="8.4" cy="4.0" r="1.6"/>
</g></g>
<g class="n-key" data-key="2" transform="translate(100 316)">
<ellipse class="n-hole" rx="22.6" ry="12.6" transform="rotate(0)"/>
<ellipse class="n-light" rx="26" ry="15.5" transform="rotate(0)"/>
<ellipse class="n-drop" cx=".5" cy="1.8" rx="20.6" ry="10.8" transform="rotate(0)"/>
<g class="n-cap">
<ellipse class="n-cap-face" rx="20.6" ry="10.8" transform="rotate(0)"/>
<ellipse class="n-cap-shine" cx="-2" cy="-5.6" rx="12" ry="3" transform="rotate(0) "/>
<text class="n-digit" x="-6.5" y="0.0">2</text>
<text class="n-letters" x="5.5" y="0.6">abc</text>
</g></g>
<g class="n-key" data-key="3" transform="translate(159.5 309)">
<ellipse class="n-hole" rx="22.6" ry="12.6" transform="rotate(-14)"/>
<ellipse class="n-light" rx="26" ry="15.5" transform="rotate(-14)"/>
<ellipse class="n-drop" cx=".5" cy="1.8" rx="20.6" ry="10.8" transform="rotate(-14)"/>
<g class="n-cap">
<ellipse class="n-cap-face" rx="20.6" ry="10.8" transform="rotate(-14)"/>
<ellipse class="n-cap-shine" cx="-2" cy="-5.6" rx="12" ry="3" transform="rotate(-14) "/>
<text class="n-digit" x="8.4" y="-3.5">3</text>
<text class="n-letters" x="-5.2" y="4.0">def</text>
</g></g>
<g class="n-key" data-key="4" transform="translate(42.5 341.5)">
<ellipse class="n-hole" rx="22.6" ry="12.6" transform="rotate(14)"/>
<ellipse class="n-light" rx="26" ry="15.5" transform="rotate(14)"/>
<ellipse class="n-drop" cx=".5" cy="1.8" rx="20.6" ry="10.8" transform="rotate(14)"/>
<g class="n-cap">
<ellipse class="n-cap-face" rx="20.6" ry="10.8" transform="rotate(14)"/>
<ellipse class="n-cap-shine" cx="-2" cy="-5.6" rx="12" ry="3" transform="rotate(14) "/>
<text class="n-digit" x="-8.4" y="-3.5">4</text>
<text class="n-letters" x="5.2" y="4.0">ghi</text>
</g></g>
<g class="n-key" data-key="5" transform="translate(100 350)">
<ellipse class="n-hole" rx="22.6" ry="12.6" transform="rotate(0)"/>
<ellipse class="n-light" rx="26" ry="15.5" transform="rotate(0)"/>
<ellipse class="n-drop" cx=".5" cy="1.8" rx="20.6" ry="10.8" transform="rotate(0)"/>
<g class="n-cap">
<ellipse class="n-cap-face" rx="20.6" ry="10.8" transform="rotate(0)"/>
<ellipse class="n-cap-shine" cx="-2" cy="-5.6" rx="12" ry="3" transform="rotate(0) "/>
<text class="n-digit" x="-6.5" y="0.0">5</text>
<text class="n-letters" x="5.5" y="0.6">jkl</text>
</g></g>
<g class="n-key" data-key="6" transform="translate(157.5 341.5)">
<ellipse class="n-hole" rx="22.6" ry="12.6" transform="rotate(-14)"/>
<ellipse class="n-light" rx="26" ry="15.5" transform="rotate(-14)"/>
<ellipse class="n-drop" cx=".5" cy="1.8" rx="20.6" ry="10.8" transform="rotate(-14)"/>
<g class="n-cap">
<ellipse class="n-cap-face" rx="20.6" ry="10.8" transform="rotate(-14)"/>
<ellipse class="n-cap-shine" cx="-2" cy="-5.6" rx="12" ry="3" transform="rotate(-14) "/>
<text class="n-digit" x="8.4" y="-3.5">6</text>
<text class="n-letters" x="-5.2" y="4.0">mno</text>
</g></g>
<g class="n-key" data-key="7" transform="translate(44.5 375.7)">
<ellipse class="n-hole" rx="22.6" ry="12.6" transform="rotate(14)"/>
<ellipse class="n-light" rx="26" ry="15.5" transform="rotate(14)"/>
<ellipse class="n-drop" cx=".5" cy="1.8" rx="20.6" ry="10.8" transform="rotate(14)"/>
<g class="n-cap">
<ellipse class="n-cap-face" rx="20.6" ry="10.8" transform="rotate(14)"/>
<ellipse class="n-cap-shine" cx="-2" cy="-5.6" rx="12" ry="3" transform="rotate(14) "/>
<text class="n-digit" x="-8.4" y="-3.5">7</text>
<text class="n-letters" x="5.2" y="4.0">pqrs</text>
</g></g>
<g class="n-key" data-key="8" transform="translate(100 383.2)">
<ellipse class="n-hole" rx="22.6" ry="12.6" transform="rotate(0)"/>
<ellipse class="n-light" rx="26" ry="15.5" transform="rotate(0)"/>
<ellipse class="n-drop" cx=".5" cy="1.8" rx="20.6" ry="10.8" transform="rotate(0)"/>
<g class="n-cap">
<ellipse class="n-cap-face" rx="20.6" ry="10.8" transform="rotate(0)"/>
<ellipse class="n-cap-shine" cx="-2" cy="-5.6" rx="12" ry="3" transform="rotate(0) "/>
<text class="n-digit" x="-6.5" y="0.0">8</text>
<text class="n-letters" x="5.5" y="0.6">tuv</text>
</g></g>
<g class="n-key" data-key="9" transform="translate(155.5 375.7)">
<ellipse class="n-hole" rx="22.6" ry="12.6" transform="rotate(-14)"/>
<ellipse class="n-light" rx="26" ry="15.5" transform="rotate(-14)"/>
<ellipse class="n-drop" cx=".5" cy="1.8" rx="20.6" ry="10.8" transform="rotate(-14)"/>
<g class="n-cap">
<ellipse class="n-cap-face" rx="20.6" ry="10.8" transform="rotate(-14)"/>
<ellipse class="n-cap-shine" cx="-2" cy="-5.6" rx="12" ry="3" transform="rotate(-14) "/>
<text class="n-digit" x="8.4" y="-3.5">9</text>
<text class="n-letters" x="-5.2" y="4.0">wxyz</text>
</g></g>
<g class="n-key" data-key="*" transform="translate(46.5 410)">
<ellipse class="n-hole" rx="22.6" ry="12.6" transform="rotate(14)"/>
<ellipse class="n-light" rx="26" ry="15.5" transform="rotate(14)"/>
<ellipse class="n-drop" cx=".5" cy="1.8" rx="20.6" ry="10.8" transform="rotate(14)"/>
<g class="n-cap">
<ellipse class="n-cap-face" rx="20.6" ry="10.8" transform="rotate(14)"/>
<ellipse class="n-cap-shine" cx="-2" cy="-5.6" rx="12" ry="3" transform="rotate(14) "/>
<path class="n-ink-bold" d="M-8.39,0.06 L-8.39,-7.14"/><path class="n-ink-bold" d="M-5.28,-1.74 L-11.51,-5.34"/><path class="n-ink-bold" d="M-11.51,-1.74 L-5.28,-5.34"/>
<text class="n-letters" x="5.2" y="4.0">+</text>
</g></g>
<g class="n-key" data-key="0" transform="translate(100 417.4)">
<ellipse class="n-hole" rx="22.6" ry="12.6" transform="rotate(0)"/>
<ellipse class="n-light" rx="26" ry="15.5" transform="rotate(0)"/>
<ellipse class="n-drop" cx=".5" cy="1.8" rx="20.6" ry="10.8" transform="rotate(0)"/>
<g class="n-cap">
<ellipse class="n-cap-face" rx="20.6" ry="10.8" transform="rotate(0)"/>
<ellipse class="n-cap-shine" cx="-2" cy="-5.6" rx="12" ry="3" transform="rotate(0) "/>
<text class="n-digit" x="-6.5" y="0.0">0</text>
<path class="n-ink-line" d="M2.0,-0.8 v2.6 h7 v-2.6"/>
</g></g>
<g class="n-key" data-key="#" transform="translate(153.5 410)">
<ellipse class="n-hole" rx="22.6" ry="12.6" transform="rotate(-14)"/>
<ellipse class="n-light" rx="26" ry="15.5" transform="rotate(-14)"/>
<ellipse class="n-drop" cx=".5" cy="1.8" rx="20.6" ry="10.8" transform="rotate(-14)"/>
<g class="n-cap">
<ellipse class="n-cap-face" rx="20.6" ry="10.8" transform="rotate(-14)"/>
<ellipse class="n-cap-shine" cx="-2" cy="-5.6" rx="12" ry="3" transform="rotate(-14) "/>
<text class="n-digit" x="8.4" y="-3.5">#</text>
<path class="n-ink-line" d="M-8.6,6.4 h6.8 v-2.8 l-3.4,-3 l-3.4,3 z"/>
</g></g>

<!-- The microphone under the 5. -->
<circle cx="94.5" cy="366.5" r=".9" fill="#05070f"/><circle cx="105.5" cy="366.5" r=".9" fill="#05070f"/>
</svg>
